<svg width="116" height="45" viewBox="0 0 116 45" fill="none" xmlns="http://www.w3.org/2000/svg">
<circle cx="22.5" cy="22.5" r="22.5" fill="white"></circle>
<path fill-rule="evenodd" clip-rule="evenodd" d="M31.859 17.8364C32.3062 18.7038 32.5522 19.3769 32.6938 20.0528C32.8376 20.7388 32.8846 21.4768 32.8846 22.5C32.8846 23.5232 32.8376 24.2613 32.6938 24.9472C32.5522 25.6231 32.3062 26.2962 31.859 27.1636C31.0634 28.7071 30.5159 29.4846 29.2508 30.5648C28.3803 31.3081 27.6605 31.7964 26.909 32.1447C26.1586 32.4925 25.3244 32.725 24.1995 32.8981C23.8094 32.9581 23.3938 32.977 22.9193 32.9881C22.8342 32.9901 22.7462 32.9918 22.6559 32.9936L22.6545 32.9936C22.265 33.0013 21.8338 33.0098 21.4115 33.0432C20.3353 33.1282 19.1296 33.384 18.016 34.302C17.2744 34.9134 16.6944 35.5239 16.2856 36.2843C15.8772 37.044 15.6878 37.8643 15.5837 38.817C15.5181 39.4185 15.5172 39.9123 15.5345 40.2652C15.5431 40.4417 15.5563 40.5834 15.5682 40.686C15.5725 40.7235 15.5767 40.7557 15.5804 40.7827C15.5823 40.8158 15.5852 40.855 15.5895 40.9001C15.6005 41.0151 15.6209 41.1679 15.6586 41.3535C15.7341 41.7253 15.8785 42.2264 16.153 42.8176C16.3678 43.2804 16.6596 43.7924 17.0547 44.3366C7.25925 41.9019 0 33.0487 0 22.5C0 12.0832 7.07888 3.3197 16.6885 0.757705C16.5704 0.934193 16.4645 1.10947 16.3695 1.28155C16.0263 1.90357 15.8318 2.47428 15.7222 2.89653C15.6672 3.10822 15.633 3.28458 15.612 3.4141C15.6015 3.47893 15.5943 3.53226 15.5894 3.57268C15.5872 3.59112 15.5855 3.6069 15.5841 3.61987C15.5826 3.63237 15.5805 3.64934 15.578 3.67046C15.5729 3.7135 15.5661 3.77392 15.5588 3.84882C15.544 3.99823 15.5266 4.20746 15.5149 4.4529C15.4922 4.93211 15.489 5.59862 15.5914 6.23962C15.7383 7.15971 15.8967 7.97126 16.271 8.71174C16.6608 9.48283 17.2333 10.0834 18.0371 10.715C19.153 11.5919 20.3088 11.8358 21.3825 11.9216C21.7734 11.9529 22.182 11.9645 22.5634 11.9754C22.6821 11.9788 22.7981 11.9821 22.9101 11.9859C23.4035 12.0026 23.8716 12.0293 24.3438 12.102C26.3221 12.4063 27.9524 13.1418 29.1841 14.3736C30.4569 15.6463 31.0923 16.3491 31.859 17.8364ZM21.1667 0.0388515C19.6265 0.66075 18.8223 1.61289 18.3901 2.39634C18.1563 2.82 18.0263 3.20482 17.9557 3.47668C17.9206 3.61204 17.9007 3.71738 17.8901 3.7828C17.8848 3.81544 17.8819 3.83788 17.8805 3.84887L17.88 3.85393L17.8782 3.87512L17.8744 3.90295L17.8744 3.90338L17.8744 3.90342L17.8743 3.90376L17.8743 3.90399L17.8743 3.90425L17.8736 3.90948L17.8697 3.94118C17.8662 3.97067 17.8611 4.01624 17.8553 4.07511C17.8437 4.19327 17.8295 4.36282 17.82 4.5622C17.8006 4.97263 17.8038 5.45997 17.8702 5.87578C18.0173 6.79707 18.1353 7.28447 18.3305 7.67061C18.5103 8.02614 18.8004 8.37989 19.4629 8.90042C20.0832 9.38787 20.7304 9.55443 21.5664 9.62125C21.893 9.64736 22.2177 9.65667 22.5832 9.66715C22.7125 9.67086 22.847 9.67472 22.9884 9.67951C23.5082 9.69715 24.0851 9.72734 24.6947 9.82111C27.0432 10.1824 29.163 11.0889 30.8159 12.7418C32.156 14.0819 32.9837 14.9818 33.9102 16.779C34.4273 17.7821 34.7583 18.6529 34.9525 19.5794C35.1445 20.4959 35.1923 21.4187 35.1923 22.5C35.1923 23.5813 35.1445 24.5041 34.9525 25.4206C34.7583 26.3471 34.4273 27.2179 33.9102 28.221C33.0127 29.9621 32.2943 31.0006 30.7492 32.3198C29.7798 33.1476 28.8827 33.7734 27.8795 34.2384C26.8751 34.704 25.8168 34.9841 24.5504 35.1789C24.0031 35.2631 23.4611 35.2838 22.9732 35.2952C22.869 35.2976 22.7681 35.2996 22.6696 35.3016C22.2863 35.3093 21.9409 35.3162 21.5934 35.3437C20.7546 35.41 20.0853 35.5869 19.4839 36.0826C18.865 36.5929 18.5311 36.9809 18.3183 37.3769C18.1051 37.7736 17.9652 38.2676 17.8778 39.0676C17.8266 39.5359 17.8275 39.9075 17.8394 40.1526C17.8454 40.275 17.8542 40.3654 17.8605 40.4201C17.8637 40.4474 17.8662 40.4658 17.8675 40.4746L17.8681 40.4786L17.8685 40.4807L17.8846 40.5719V40.6551L17.8852 40.6636L17.8867 40.6805C17.8904 40.7187 17.8992 40.7913 17.9201 40.8941C17.9618 41.0993 18.0518 41.4274 18.2461 41.8458C18.6025 42.6135 19.3257 43.7191 20.8045 44.9371C21.3642 44.9788 21.9296 45 22.5 45C34.9264 45 45 34.9264 45 22.5C45 10.0736 34.9264 0 22.5 0C22.0524 0 21.6078 0.0130714 21.1667 0.0388515ZM13.8462 19.0385C13.8462 20.6316 12.5547 21.9231 10.9615 21.9231C9.36841 21.9231 8.07692 20.6316 8.07692 19.0385C8.07692 17.4453 9.36841 16.1538 10.9615 16.1538C12.5547 16.1538 13.8462 17.4453 13.8462 19.0385ZM10.9615 14.4231C12.5547 14.4231 13.8462 13.1316 13.8462 11.5385C13.8462 9.94533 12.5547 8.65385 10.9615 8.65385C9.36841 8.65385 8.07692 9.94533 8.07692 11.5385C8.07692 13.1316 9.36841 14.4231 10.9615 14.4231ZM13.8462 26.5385C13.8462 28.1316 12.5547 29.4231 10.9615 29.4231C9.36841 29.4231 8.07692 28.1316 8.07692 26.5385C8.07692 24.9453 9.36841 23.6538 10.9615 23.6538C12.5547 23.6538 13.8462 24.9453 13.8462 26.5385ZM10.9615 36.9231C12.5547 36.9231 13.8462 35.6316 13.8462 34.0385C13.8462 32.4453 12.5547 31.1538 10.9615 31.1538C9.36841 31.1538 8.07692 32.4453 8.07692 34.0385C8.07692 35.6316 9.36841 36.9231 10.9615 36.9231Z" fill="#19B5EB"></path>
<path d="M60.4453 29V14.7812H65.3184C66.9264 14.7812 68.1504 15.1035 68.9902 15.748C69.8301 16.3926 70.25 17.3529 70.25 18.6289C70.25 19.2799 70.0742 19.8659 69.7227 20.3867C69.3711 20.9076 68.8568 21.3112 68.1797 21.5977C68.9479 21.806 69.5404 22.1999 69.957 22.7793C70.3802 23.3522 70.5918 24.0423 70.5918 24.8496C70.5918 26.1842 70.1621 27.2096 69.3027 27.9258C68.4499 28.6419 67.2259 29 65.6309 29H60.4453ZM62.916 22.584V27.0273H65.6602C66.4349 27.0273 67.0404 26.8353 67.4766 26.4512C67.9128 26.0671 68.1309 25.5332 68.1309 24.8496C68.1309 23.3717 67.3757 22.6165 65.8652 22.584H62.916ZM62.916 20.7676H65.3379C66.1061 20.7676 66.7051 20.5951 67.1348 20.25C67.571 19.8984 67.7891 19.4036 67.7891 18.7656C67.7891 18.0625 67.5872 17.5547 67.1836 17.2422C66.7865 16.9297 66.1647 16.7734 65.3184 16.7734H62.916V20.7676ZM79.4297 18.4336H81.793V29H79.4297V21.9492L75.2891 29H72.9258V18.4336H75.2891V25.4844L79.4297 18.4336ZM94.8203 16.7734H90.3867V29H87.9355V16.7734H83.541V14.7812H94.8203V16.7734ZM100.24 29.1953C98.7363 29.1953 97.5156 28.7233 96.5781 27.7793C95.6471 26.8288 95.1816 25.5658 95.1816 23.9902V23.6973C95.1816 22.6426 95.3835 21.7018 95.7871 20.875C96.1973 20.0417 96.7702 19.3939 97.5059 18.9316C98.2415 18.4694 99.0618 18.2383 99.9668 18.2383C101.406 18.2383 102.516 18.6973 103.297 19.6152C104.085 20.5332 104.479 21.832 104.479 23.5117V24.4688H97.5742C97.6458 25.3411 97.9355 26.0312 98.4434 26.5391C98.9577 27.0469 99.6022 27.3008 100.377 27.3008C101.464 27.3008 102.35 26.8613 103.033 25.9824L104.312 27.2031C103.889 27.8346 103.323 28.3262 102.613 28.6777C101.91 29.0228 101.119 29.1953 100.24 29.1953ZM99.957 20.1426C99.306 20.1426 98.7786 20.3704 98.375 20.8262C97.9779 21.2819 97.724 21.9167 97.6133 22.7305H102.135V22.5547C102.083 21.7604 101.871 21.1615 101.5 20.7578C101.129 20.3477 100.615 20.1426 99.957 20.1426ZM110.123 21.9102L112.135 18.4336H114.771L111.539 23.6387L114.879 29H112.262L110.152 25.3867L108.053 29H105.416L108.756 23.6387L105.533 18.4336H108.15L110.123 21.9102Z" fill="white"></path>
</svg>